<?xml version="1.0" encoding="utf-8"?>
<!-- Generator: Adobe Illustrator 27.0.0, SVG Export Plug-In . SVG Version: 6.00 Build 0)  -->
<svg version="1.1" id="Layer_2_00000073713711428063839510000006275744003675550634_"
	 xmlns="http://www.w3.org/2000/svg" xmlns:xlink="http://www.w3.org/1999/xlink" x="0px" y="0px" viewBox="0 0 469.3 162.1"
	 style="enable-background:new 0 0 469.3 162.1;" xml:space="preserve">
<style type="text/css">
	.st0{fill:#008080;}
	.st1{enable-background:new    ;}
</style>
<g id="Layer_1-2">
	<g>
		<path class="st0" d="M132.9,39.1c-1.1,1.1-2,2.6-3.2,3.4c-8.6,5.2-17.3,10.4-26,15.5C94.2,63.7,84.6,69.3,75,74.9
			c-1.8,1.1-3.9,1.8-5.9,2.4c-2.8,0.8-5.5-0.1-7.9-1.3C56.1,73.2,51,70.4,46,67.5c-11.9-6.8-23.7-13.6-35.5-20.4
			c-0.4-0.2-0.8-0.4-1.4-0.8c0,0.7,0,1.2,0,1.6c0,12.5,0,25.1,0,37.6c0,3.1-1.9,5.2-4.7,5.1c-2.2-0.1-4-1.8-4.2-3.9
			c-0.1-0.6-0.1-1.3-0.1-1.9c0-14.1,0.1-28.1-0.1-42.2c0-3.5,1.4-6,4-7.9c1.9-1.3,3.9-2.5,5.9-3.7c15.2-8.7,30.3-17.5,45.5-26.2
			c3.4-1.9,6.7-4,10.6-4.9h2c3.3,0.7,6.1,2.4,8.9,4c6.3,3.7,12.7,7.4,19,11.1c10.9,6.4,21.8,12.8,32.7,19.2c1.7,1,3.3,2.2,4.2,4
			V39.1z M67,67.7c2.2,0,4.1-0.9,5.9-2c12.3-7.1,24.6-14.3,36.8-21.5c2.1-1.2,4-2.8,5.8-4.3c1.1-0.9,1.1-1.8,0-2.8
			c-0.7-0.6-1.5-1.1-2.2-1.6c-13.7-8-27.5-16-41.2-24.1c-3.4-2-6.6-2.1-10-0.1c-9.5,5.5-18.9,10.9-28.4,16.3
			c-4.9,2.8-9.8,5.6-14.6,8.5c-3,1.8-3,3.2-0.1,5.1c3.2,2.1,6.5,4.1,9.8,6c10.5,6.1,21,12.1,31.6,18.1C62.4,66.6,64.6,67.7,67,67.7
			L67,67.7z"/>
		<path class="st0" d="M27,144.6h-9V143c0-20.8,0-41.6,0-62.4c0-2.6-0.1-5.2,0-7.8c0.2-2.7,2.2-4.4,4.6-4.1c0.9,0.1,1.9,0.5,2.7,1
			c9.7,5.6,19.4,11.1,29.1,16.7C64.6,92.3,74.8,98.2,85,104c0.3,0.2,0.7,0.4,1.2,0.6c0-2.1,0-4,0-5.9c0-3.5,0-7.1,0-10.6
			c0-3.3,1.3-5.7,4.3-7.4c6.3-3.5,12.6-7.2,18.8-10.8c1.6-0.9,3.2-1.3,4.9-0.4c1.5,0.7,2.2,2,2.4,3.6c0.1,0.4,0,0.8,0,1.3
			c0,22.9,0,45.9,0,68.8c0,0.4,0,0.8,0,1.4h-9V81.4c-0.5,0.3-0.8,0.4-1.2,0.6c-3.1,1.8-6.2,3.7-9.3,5.2c-1.7,0.8-2.1,1.9-2.1,3.6
			c0.1,17.3,0,34.7,0,52v1.8c-2,0-3.9-0.1-5.8,0c-2.1,0.1-3.8-0.4-5.6-1.5c-11.3-6.7-22.7-13.2-34-19.8c-0.4-0.2-0.8-0.4-1.4-0.7
			v21.9h-9c0-0.4-0.1-0.7-0.1-1.1c0-18.1,0-36.1,0-54.2c0-0.4-0.3-1.1-0.6-1.3c-3.7-2.2-7.5-4.4-11.2-6.5c-0.1-0.1-0.3-0.1-0.6-0.2
			L27,144.6L27,144.6z M48.5,93.5v1.6c0,5.3,0,10.5,0,15.8c0,1,0.3,1.5,1.1,2c11.8,6.8,23.6,13.5,35.4,20.3c0.3,0.2,0.7,0.4,1.2,0.6
			v-1.4c0-5.3,0-10.7,0-16c0-0.9-0.3-1.4-1.1-1.9c-11.8-6.7-23.5-13.5-35.3-20.3C49.5,94.1,49.1,93.9,48.5,93.5z"/>
	</g>
	<g class="st1">
		<path class="st0" d="M152.8,75.3V24h9.7l21.7,35.2V24h8.9v51.3h-9.6l-21.7-35.2v35.2H152.8z"/>
	</g>
	<g class="st1">
		<path class="st0" d="M217.5,76.3c-3.4,0-6.4-0.9-9.2-2.6c-2.8-1.7-5-4.1-6.6-7s-2.5-6.2-2.5-9.7c0-2.7,0.5-5.2,1.4-7.5
			c1-2.3,2.3-4.4,3.9-6.2c1.7-1.8,3.6-3.2,5.8-4.2c2.2-1,4.6-1.5,7.1-1.5c2.9,0,5.5,0.6,7.9,1.8c2.4,1.2,4.4,2.9,6.1,5
			c1.7,2.1,2.9,4.5,3.6,7.2c0.8,2.7,0.9,5.5,0.5,8.4h-26.8c0.3,1.4,0.9,2.6,1.7,3.7c0.8,1.1,1.8,2,3,2.6c1.2,0.6,2.6,1,4.1,1
			c1.6,0,3-0.3,4.3-1.1c1.3-0.8,2.4-1.8,3.2-3.1l9.1,2.1c-1.5,3.3-3.7,5.9-6.7,8C224.5,75.2,221.2,76.3,217.5,76.3z M208.5,53.3h18
			c-0.3-1.5-0.8-2.8-1.7-4c-0.9-1.2-1.9-2.1-3.2-2.8c-1.3-0.7-2.6-1.1-4.1-1.1s-2.8,0.3-4.1,1c-1.2,0.7-2.3,1.6-3.2,2.8
			C209.4,50.5,208.8,51.8,208.5,53.3z"/>
	</g>
	<g class="st1">
		<path class="st0" d="M258.7,75.3h-8.9l-12.2-36.7h8.8l8,23.7l7.9-23.7h8.8l7.9,23.7l8-23.7h8.8l-12.2,36.7h-8.9l-8-23.8
			L258.7,75.3z"/>
	</g>
	<g class="st1">
		<path class="st0" d="M321.9,47.6h-7.1v27.7h-8.9V47.6h-5.4v-8.9h5.4V27.1h8.9v11.5h7.1V47.6z"/>
	</g>
	<g class="st1">
		<path class="st0" d="M343.8,76.3c-3.4,0-6.4-0.9-9.2-2.6c-2.8-1.7-5-4.1-6.6-7s-2.5-6.2-2.5-9.7c0-2.7,0.5-5.2,1.4-7.5
			c1-2.3,2.3-4.4,3.9-6.2c1.7-1.8,3.6-3.2,5.8-4.2c2.2-1,4.6-1.5,7.1-1.5c3.4,0,6.4,0.9,9.2,2.6c2.8,1.7,5,4.1,6.6,7
			c1.6,2.9,2.5,6.2,2.5,9.8c0,2.7-0.5,5.2-1.4,7.5s-2.3,4.4-3.9,6.1c-1.7,1.8-3.6,3.2-5.8,4.2C348.8,75.8,346.4,76.3,343.8,76.3z
			 M343.8,67.3c1.8,0,3.4-0.5,4.8-1.4c1.4-1,2.5-2.2,3.4-3.8c0.8-1.6,1.2-3.3,1.2-5.1c0-1.9-0.4-3.6-1.3-5.2s-2-2.8-3.4-3.8
			c-1.4-0.9-3-1.4-4.7-1.4c-1.8,0-3.3,0.5-4.8,1.4c-1.4,1-2.5,2.2-3.4,3.8c-0.8,1.6-1.2,3.3-1.2,5.2c0,1.9,0.4,3.7,1.3,5.2
			c0.9,1.6,2,2.8,3.4,3.7C340.6,66.9,342.2,67.3,343.8,67.3z"/>
	</g>
	<g class="st1">
		<path class="st0" d="M401.5,52.1v23.2h-8.9V54.5c0-1.4-0.4-2.8-1.1-3.9c-0.7-1.2-1.7-2.1-2.8-2.8c-1.2-0.7-2.5-1-3.9-1
			c-1.4,0-2.8,0.3-3.9,1c-1.2,0.7-2.1,1.6-2.8,2.8c-0.7,1.2-1,2.5-1,3.9v20.8H368l0-36.7h8.9l0,3.3c1.2-1.3,2.7-2.4,4.5-3.1
			c1.7-0.8,3.6-1.2,5.6-1.2c2.7,0,5.1,0.7,7.3,2c2.2,1.3,4,3.1,5.3,5.2C400.9,47,401.5,49.5,401.5,52.1z"/>
	</g>
	<g class="st1">
		<path class="st0" d="M171.5,92.5h10.3l18.7,51.3h-9.5l-3.3-9.1h-22l-3.3,9.1h-9.5L171.5,92.5z M168.9,125.8h15.4l-7.7-21.2
			L168.9,125.8z"/>
	</g>
	<g class="st1">
		<path class="st0" d="M226.8,132.8l8.1,4.4c-1.7,2.3-3.8,4.1-6.3,5.5c-2.5,1.4-5.3,2.1-8.3,2.1c-3.4,0-6.4-0.9-9.2-2.6
			c-2.8-1.7-5-4.1-6.6-7s-2.5-6.2-2.5-9.7c0-2.7,0.5-5.2,1.4-7.5c1-2.3,2.3-4.4,3.9-6.2c1.7-1.8,3.6-3.2,5.8-4.2
			c2.2-1,4.6-1.5,7.1-1.5c3,0,5.8,0.7,8.3,2.1c2.5,1.4,4.7,3.3,6.3,5.6l-8.1,4.3c-0.9-1-1.9-1.7-3-2.3c-1.2-0.5-2.4-0.8-3.6-0.8
			c-1.8,0-3.3,0.5-4.8,1.4c-1.4,1-2.5,2.2-3.4,3.8s-1.2,3.3-1.2,5.2c0,1.8,0.4,3.5,1.2,5.1s2,2.8,3.4,3.8c1.4,1,3,1.4,4.8,1.4
			c1.3,0,2.5-0.3,3.6-0.8C225,134.5,226,133.7,226.8,132.8z"/>
	</g>
	<g class="st1">
		<path class="st0" d="M268,107.2h8.9v36.7H268l-0.4-4.5c-1,1.6-2.3,3-4,4s-3.6,1.5-5.8,1.5c-2.7,0-5.3-0.5-7.6-1.5
			c-2.4-1-4.5-2.4-6.2-4.3c-1.8-1.8-3.2-3.9-4.2-6.3c-1-2.4-1.5-4.9-1.5-7.6c0-2.6,0.5-5.1,1.4-7.4c1-2.3,2.3-4.3,4.1-6
			c1.7-1.7,3.7-3.1,6-4.1s4.7-1.5,7.3-1.5c2.4,0,4.6,0.5,6.5,1.6c1.9,1.1,3.5,2.4,4.9,4.1L268,107.2z M257.5,136.2
			c1.9,0,3.6-0.5,5.1-1.4c1.5-1,2.6-2.2,3.4-3.9c0.8-1.6,1.2-3.4,1.2-5.4c0-2-0.4-3.8-1.2-5.4c-0.8-1.6-2-2.9-3.5-3.9
			c-1.5-1-3.2-1.4-5-1.4c-1.9,0-3.6,0.5-5.2,1.4c-1.6,1-2.8,2.3-3.7,3.9c-0.9,1.6-1.4,3.4-1.4,5.4s0.5,3.8,1.4,5.4
			c0.9,1.6,2.2,2.9,3.7,3.8C254,135.7,255.7,136.2,257.5,136.2z"/>
	</g>
	<g class="st1">
		<path class="st0" d="M311.2,88.8h8.9v55h-8.9v-4.6c-1.2,1.6-2.7,3-4.4,4c-1.8,1-3.8,1.5-6.2,1.5c-2.7,0-5.2-0.5-7.5-1.5
			c-2.3-1-4.4-2.4-6.1-4.2c-1.8-1.8-3.2-3.8-4.2-6.1c-1-2.3-1.5-4.8-1.5-7.5s0.5-5.2,1.5-7.5c1-2.3,2.4-4.4,4.2-6.1
			c1.8-1.8,3.8-3.2,6.1-4.2c2.3-1,4.8-1.5,7.5-1.5c2.3,0,4.4,0.5,6.2,1.5c1.8,1,3.3,2.4,4.4,4V88.8z M300.7,136.2
			c1.9,0,3.6-0.5,5.1-1.4c1.5-1,2.6-2.2,3.4-3.9c0.8-1.6,1.2-3.4,1.2-5.4c0-2-0.4-3.8-1.2-5.4c-0.8-1.6-2-2.9-3.5-3.9
			c-1.5-1-3.2-1.4-5-1.4c-1.9,0-3.6,0.5-5.2,1.4c-1.6,1-2.8,2.3-3.7,3.9c-0.9,1.6-1.4,3.4-1.4,5.4s0.5,3.8,1.4,5.4
			c0.9,1.6,2.2,2.9,3.7,3.8C297.1,135.7,298.9,136.2,300.7,136.2z"/>
	</g>
	<g class="st1">
		<path class="st0" d="M344.5,144.8c-3.4,0-6.4-0.9-9.2-2.6c-2.8-1.7-5-4.1-6.6-7s-2.5-6.2-2.5-9.7c0-2.7,0.5-5.2,1.4-7.5
			c1-2.3,2.3-4.4,3.9-6.2c1.7-1.8,3.6-3.2,5.8-4.2c2.2-1,4.6-1.5,7.1-1.5c2.9,0,5.5,0.6,7.9,1.8c2.4,1.2,4.4,2.9,6.1,5
			c1.7,2.1,2.9,4.5,3.6,7.2c0.8,2.7,0.9,5.5,0.5,8.4h-26.8c0.3,1.4,0.9,2.6,1.7,3.7c0.8,1.1,1.8,2,3,2.6c1.2,0.6,2.6,1,4.1,1
			c1.6,0,3-0.3,4.3-1.1c1.3-0.8,2.4-1.8,3.2-3.1l9.1,2.1c-1.5,3.3-3.7,5.9-6.7,8C351.5,143.8,348.2,144.8,344.5,144.8z M335.5,121.8
			h18c-0.3-1.5-0.8-2.8-1.7-4s-1.9-2.1-3.2-2.8c-1.3-0.7-2.6-1.1-4.1-1.1s-2.8,0.3-4.1,1s-2.3,1.6-3.2,2.8
			C336.4,119,335.8,120.3,335.5,121.8z"/>
	</g>
	<g class="st1">
		<path class="st0" d="M368.6,143.8v-36.7h8.9v3.3c1.2-1.3,2.7-2.4,4.5-3.1c1.7-0.8,3.6-1.2,5.6-1.2c2.5,0,4.9,0.6,7,1.8
			s3.8,2.8,5.1,4.8c1.3-2,3-3.6,5.1-4.8s4.5-1.8,7-1.8c2.7,0,5.1,0.7,7.3,2c2.2,1.3,3.9,3.1,5.2,5.2c1.3,2.2,2,4.6,2,7.3v23.2h-8.9
			V123c0-1.4-0.3-2.7-1-3.9c-0.7-1.2-1.6-2.1-2.8-2.9c-1.2-0.7-2.5-1.1-3.9-1.1c-1.4,0-2.7,0.3-3.9,1c-1.2,0.7-2.1,1.6-2.8,2.8
			c-0.7,1.2-1.1,2.5-1.1,4v20.8H393V123c0-1.5-0.3-2.8-1-4c-0.7-1.2-1.6-2.1-2.8-2.8c-1.2-0.7-2.5-1-3.9-1c-1.4,0-2.7,0.4-3.9,1.1
			c-1.2,0.7-2.1,1.7-2.8,2.9c-0.7,1.2-1,2.5-1,3.9v20.8H368.6z"/>
	</g>
	<g class="st1">
		<path class="st0" d="M456.9,107.2h9.5l-20.1,55h-9.5l6.6-18.3l-13.2-36.7h9.8l7.9,24.4L456.9,107.2z"/>
	</g>
</g>
</svg>
